<svg width="17" height="18" viewBox="0 0 17 18" fill="none" xmlns="http://www.w3.org/2000/svg">
<path d="M14.1441 3.88978V15.4322C14.1441 16.2606 13.4725 16.9322 12.6441 16.9322H4.40678C3.57835 16.9322 2.90678 16.2606 2.90678 15.4322V3.88978M14.1441 3.88978H16M14.1441 3.88978H11.9576M2.90678 3.88978H1M2.90678 3.88978H4.99153M4.99153 3.88978L5.88668 1.9415C6.13134 1.40901 6.66369 1.06775 7.2497 1.06775H9.64639C10.2204 1.06775 10.7441 1.39536 10.9952 1.91155L11.9576 3.88978M4.99153 3.88978H11.9576M5.57627 7.37283V13.3728M8.47458 7.37283V13.3728M11.4746 7.37283V13.3728" stroke="#3E2723" stroke-linecap="round"/>
</svg>
