<svg width="24" height="27" viewBox="0 0 24 27" fill="none" xmlns="http://www.w3.org/2000/svg">
<path d="M14.8338 1H4.13044C2.40154 1 1 2.40154 1 4.13043V22.7391C1 24.468 2.40154 25.8696 4.13044 25.8696H17.8696C19.5985 25.8696 21 24.468 21 22.7391V7.16623C21 6.33599 20.6702 5.53975 20.0831 4.95268L17.0473 1.91688C16.4602 1.32981 15.664 1 14.8338 1Z" stroke="#3E2723" stroke-width="1.3913" stroke-linecap="round"/>
<path d="M20.371 7.19523L22.742 9.03931C22.8836 9.14945 22.907 9.35447 22.7939 9.4937L21.56 11.0123L14.68 19.48L11.5896 20.958C11.3495 21.0729 11.0823 20.8614 11.1388 20.6014L11.8 17.56L18.68 8.82769L19.9232 7.24979C20.0321 7.11158 20.2321 7.08721 20.371 7.19523Z" fill="#FAFAFA"/>
<path d="M11.8 17.56L11.1388 20.6014C11.0823 20.8614 11.3495 21.0729 11.5896 20.958L14.68 19.48M11.8 17.56L14.68 19.48M11.8 17.56L18.68 8.82769M14.68 19.48L21.56 11.0123M21.56 11.0123L22.7939 9.4937C22.907 9.35447 22.8836 9.14945 22.742 9.03931L20.371 7.19523C20.2321 7.08721 20.0321 7.11158 19.9232 7.24979L18.68 8.82769M21.56 11.0123L18.68 8.82769" stroke="#3E2723"/>
<path d="M3.5 5.00036C9.47749 3.98216 13.5 1.99997 14.5 6.00015C15.5 10.0003 5.50002 7.99996 4.50002 11.5001C3.50002 15.0003 12.5 10.0004 13 12.5001C13.5 14.9999 5.00002 15.4999 4.00002 19.0001C3.00002 22.5004 11.5 21.0004 11.5 21.0004" stroke="#3E2723" stroke-linecap="round"/>
</svg>
